<svg version="1.1" id="Layer_1" xmlns="http://www.w3.org/2000/svg" xmlns:xlink="http://www.w3.org/1999/xlink" x="0px" y="0px"
	 width="100%" viewBox="0 0 1024 1024" enable-background="new 0 0 1024 1024" xml:space="preserve">
<path fill="#000000" opacity="1.000000" stroke="none" 
	d="
M56.924706,369.167236 
	C74.828712,308.783936 103.526779,254.559082 143.047302,206.044754 
	C191.778015,146.224274 251.822617,101.530739 322.755615,71.303925 
	C358.103271,56.241150 394.746979,45.635708 432.520569,38.841976 
	C467.050995,32.631535 501.940399,31.151812 536.859192,32.841591 
	C609.338074,36.348972 677.867981,54.766205 741.687622,89.675041 
	C801.262451,122.261986 851.923767,165.294098 893.042419,219.466904 
	C932.138428,270.974884 959.162476,328.197296 974.658691,390.916412 
	C980.399719,414.152618 984.022095,437.723541 986.517944,461.536072 
	C988.887512,484.143951 989.432556,506.839691 988.052490,529.374023 
	C981.604797,634.661377 947.851624,729.799500 879.442139,811.166565 
	C822.265015,879.173706 752.004150,928.805298 667.706604,957.849915 
	C639.207764,967.669006 609.921631,974.259827 580.054138,978.489197 
	C555.788574,981.925293 531.436646,984.002197 506.973785,983.220947 
	C448.726654,981.360657 392.096863,971.208801 337.743347,949.438477 
	C290.506866,930.518799 247.258636,904.980103 208.013702,872.666321 
	C151.752380,826.341614 108.659958,769.987793 79.104637,703.277832 
	C61.695045,663.982178 49.911961,623.061768 42.891582,580.743958 
	C37.451443,547.951599 36.425846,514.824768 37.884190,481.727783 
	C39.562759,443.632690 46.188862,406.217834 56.924706,369.167236 
M376.692352,628.859924 
	C381.440521,626.255188 384.500214,622.304810 386.121399,617.157043 
	C381.488647,619.876282 378.528229,624.250732 374.237213,628.151245 
	C371.233185,629.655334 368.114990,631.012268 365.760254,634.465332 
	C370.548401,634.199585 373.579559,632.164246 376.692352,628.859924 
M589.366333,424.743713 
	C588.366150,423.575623 587.071655,422.888458 585.665283,422.305145 
	C577.850342,419.063721 569.961365,416.138519 566.082336,407.401855 
	C564.919067,404.781738 562.194885,402.204071 557.081665,402.497009 
	C568.756775,412.522217 575.609680,424.932983 583.754517,436.374756 
	C584.459290,437.364838 585.311829,439.144073 587.499573,437.928131 
	C585.888123,433.273224 581.041748,430.423035 580.215515,425.238281 
	C583.333374,424.392426 585.463928,426.713165 588.528015,427.393158 
	C595.358459,431.257904 602.188965,435.122650 609.446838,439.504578 
	C611.991882,441.481293 613.897461,444.004028 615.322937,446.843811 
	C617.785583,451.749908 621.958008,453.506500 627.134155,453.800049 
	C628.968262,453.904053 631.492920,452.648468 632.427063,455.216919 
	C633.305481,457.632172 631.919983,459.756805 630.368469,461.564423 
	C626.244385,466.369171 620.930847,469.576294 615.106079,471.673981 
	C593.527100,479.445221 579.485840,477.225830 567.431763,457.655792 
	C560.010132,445.606659 551.836426,433.972992 540.249390,425.305298 
	C536.249878,422.313507 532.062622,419.478394 528.494507,416.021149 
	C514.352295,402.318359 504.210754,386.805847 507.297699,365.778076 
	C507.450012,364.740356 507.328583,363.784058 506.205109,363.231750 
	C504.612854,363.699921 504.597839,365.063599 504.309509,366.376251 
	C502.151306,376.202667 503.692322,385.561737 508.035309,394.478210 
	C509.081879,396.626923 509.217010,397.945770 507.238251,399.571899 
	C494.211761,410.277069 491.914612,424.714600 493.908447,440.234497 
	C495.781952,454.817993 504.062042,466.410675 512.804382,477.667664 
	C524.701965,492.987396 539.317627,505.769836 552.332581,520.059021 
	C581.218567,551.773193 599.021484,588.318176 602.116455,631.338623 
	C603.867615,655.679443 599.978027,679.481018 591.744751,702.413574 
	C587.025146,715.559509 581.262085,728.329407 576.047485,741.300232 
	C575.044250,743.795715 573.785461,746.372375 575.348999,750.556213 
	C577.965454,744.561035 579.948730,739.552429 582.295349,734.720337 
	C592.365051,713.984802 600.530762,692.631958 604.226379,669.739807 
	C605.067139,664.531738 604.373962,658.884949 606.999023,654.178833 
	C615.542236,638.863281 627.130920,625.959595 640.604187,614.915039 
	C665.484009,594.520081 694.081482,581.503296 725.133362,573.550110 
	C745.586670,568.311584 766.685120,566.515930 787.202881,561.661316 
	C800.453918,558.526001 813.906616,556.087952 826.213135,549.797302 
	C836.978027,544.294678 845.007141,536.117065 850.428955,525.385803 
	C863.343262,499.824921 844.278625,477.372131 823.858337,473.462616 
	C821.325012,472.977631 818.756775,472.719818 815.707642,471.006165 
	C819.742188,468.345337 823.225952,466.209320 826.529175,463.823334 
	C829.762207,461.488007 832.578491,458.706757 834.264893,454.981171 
	C833.307678,454.881226 832.628723,455.058411 832.222900,455.491547 
	C824.675781,463.546967 815.045654,467.942932 804.706909,470.958160 
	C792.731995,474.450531 780.640015,477.506470 769.541443,483.511108 
	C758.683289,489.385651 747.182861,493.839935 735.602661,498.067169 
	C734.541687,498.454407 733.363831,498.744080 732.247131,498.722595 
	C715.163879,498.394501 702.095337,488.441833 697.237305,472.005127 
	C696.632446,469.958344 696.325439,467.764252 696.274292,465.629028 
	C696.218140,463.286102 697.875000,462.166046 700.016052,461.602661 
	C701.826294,461.126282 703.325684,460.465668 704.502258,462.969238 
	C705.892212,465.926788 708.559692,465.802979 711.390381,464.833557 
	C720.928528,461.566711 729.965759,457.238434 737.677856,450.755432 
	C743.262329,446.060944 749.178406,444.081818 756.442688,444.470215 
	C762.672302,444.803284 769.016541,445.220795 776.357971,443.924255 
	C771.303345,440.566589 766.541077,441.132812 762.055176,440.941498 
	C746.679199,440.285736 731.574097,443.211487 716.389526,444.897705 
	C705.884399,446.064301 695.800659,444.970612 685.990906,441.296448 
	C682.173767,439.866821 679.119324,437.410583 677.528931,433.326965 
	C673.010071,421.723633 677.819580,405.648193 688.085693,398.533417 
	C695.428162,393.444824 703.561890,389.980957 712.107971,387.678253 
	C726.635986,383.763824 737.980774,373.975708 751.325134,367.370453 
	C749.331787,364.894470 747.458252,366.439850 745.777039,367.003021 
	C739.513306,369.101288 734.747559,373.804810 729.000061,376.816803 
	C726.676758,378.034332 724.364990,379.299225 721.813660,377.539886 
	C721.969360,375.269562 723.597412,374.434082 724.719849,373.296997 
	C735.179260,362.701080 744.623779,351.309021 752.015930,338.334076 
	C759.731445,324.791656 766.548218,310.995270 765.695312,294.690033 
	C765.038757,282.137787 757.577576,272.022736 745.583496,268.335480 
	C742.594055,267.416504 739.541199,266.703613 736.335205,265.847290 
	C737.425232,260.292786 742.909485,255.870499 740.607788,249.322098 
	C738.183716,250.367966 738.156067,251.684143 737.802734,252.735703 
	C735.461487,259.702698 731.424316,265.432159 725.889587,270.287415 
	C717.987244,277.219635 708.312439,280.254303 698.599060,283.239380 
	C681.794312,288.403748 666.008179,295.683258 654.285461,309.087982 
	C643.413147,321.520294 622.183960,323.976776 609.618042,306.452026 
	C607.768066,303.872040 605.946533,301.220947 607.574707,297.740295 
	C609.270874,294.114166 612.320679,293.386230 615.886047,293.649017 
	C622.460449,294.133545 627.806519,291.400757 632.788330,287.444885 
	C638.590088,282.837921 642.041748,276.549438 645.269165,270.161224 
	C647.068176,266.600372 649.403992,264.259583 653.406433,263.669373 
	C662.513672,262.326477 670.607117,259.092224 677.210327,252.246185 
	C679.776001,249.586136 683.506104,248.049179 686.705811,246.000656 
	C681.623291,245.499527 677.804138,247.778473 674.238037,250.473938 
	C668.163147,255.065674 661.594666,258.489044 653.998352,259.679901 
	C639.597839,261.937561 626.060181,266.929626 612.639526,272.412659 
	C605.872681,275.177216 598.917053,277.529968 591.927734,279.682434 
	C587.135986,281.158173 582.085144,282.149780 577.795410,278.149384 
	C561.550964,263.000824 560.934631,244.852173 578.329834,230.705627 
	C587.111267,223.564133 595.945190,216.413315 605.314636,210.096237 
	C610.956055,206.292664 613.647278,201.526932 614.955627,195.234589 
	C616.802856,186.350189 622.234497,180.070740 630.169861,175.895447 
	C638.476440,171.524826 647.518494,169.231125 656.437378,166.543671 
	C661.272461,165.086746 666.585205,166.738724 671.115417,164.155014 
	C682.308228,157.771393 694.579163,154.905594 707.124573,153.021652 
	C717.823242,151.415039 728.550232,150.706253 737.430420,158.623779 
	C740.428528,161.296936 743.720520,162.668015 747.479797,163.696259 
	C777.821228,171.995361 804.047791,186.905319 823.932983,211.830383 
	C843.627380,236.516327 853.926331,264.447571 853.386841,296.247009 
	C853.026978,317.463776 848.024719,337.670929 841.041443,357.523682 
	C839.989380,360.514557 838.312683,361.248016 835.316895,360.375580 
	C831.677368,359.315704 827.921570,358.653931 824.214478,357.827301 
	C822.144714,357.365753 820.428284,357.717468 818.957520,360.273926 
	C824.993164,361.019257 830.559082,361.394623 835.993164,362.686584 
	C870.046448,370.782928 897.241638,389.286224 917.313477,417.707275 
	C940.286255,450.236084 947.073059,486.799133 940.049377,525.568359 
	C933.555969,561.410217 915.485840,590.655029 885.759216,612.262146 
	C863.739014,628.267822 838.659546,637.549194 812.892761,645.304932 
	C791.799072,651.654114 771.128479,658.885498 752.792725,671.625061 
	C725.065491,690.889771 712.951233,723.859558 722.408936,755.319885 
	C723.244324,758.098816 723.572998,761.764282 727.025818,762.467407 
	C730.543213,763.183777 731.558228,759.565857 733.069092,757.373779 
	C744.721558,740.467957 756.987183,724.059998 772.437622,710.376709 
	C790.457520,694.417786 811.054932,684.503601 835.671936,684.681030 
	C839.411804,684.708008 843.159851,685.030579 846.368103,688.201416 
	C841.884888,692.496582 836.288818,693.955627 831.269592,696.369446 
	C811.419006,705.915771 798.392578,721.416077 791.083801,741.960876 
	C790.348755,744.027100 789.175293,746.215210 790.492676,748.417114 
	C792.961853,749.065308 794.108459,747.387756 795.466431,746.261841 
	C809.192688,734.880737 825.088806,731.037659 842.566956,732.633362 
	C844.410583,732.801697 846.474060,732.814148 847.039062,735.001343 
	C847.672241,737.452576 845.707947,738.587646 843.969421,739.570374 
	C839.909729,741.865112 835.716492,743.929199 831.705139,746.302612 
	C822.315674,751.858337 814.388367,758.805298 811.011658,769.670898 
	C808.031555,779.260010 811.456543,785.347778 821.082153,787.704956 
	C828.687256,789.567383 836.252869,788.936890 843.771118,787.061523 
	C861.732239,782.581543 873.673218,770.577026 883.608459,755.762329 
	C906.962402,720.938721 924.857666,683.539307 937.334656,643.527222 
	C949.662964,603.991821 956.994202,563.539429 958.538818,522.165161 
	C959.733093,490.175751 957.304077,458.322784 951.446838,426.853271 
	C941.434998,373.061829 923.520325,322.135773 894.398682,275.533356 
	C866.607666,231.060440 832.503967,192.100922 791.274536,159.592102 
	C751.194336,127.989502 707.273193,103.301704 658.832458,86.797585 
	C619.900391,73.533157 579.856201,65.967499 538.900940,63.532475 
	C518.653442,62.328644 498.333344,62.614040 478.038422,64.209259 
	C458.968018,65.708229 440.019379,68.041122 421.308624,71.839012 
	C369.556671,82.343552 321.465302,102.051323 276.601898,129.899994 
	C212.702103,169.565414 162.274063,222.111328 125.015396,287.366974 
	C88.488686,351.340668 70.193443,420.449524 67.436569,493.810577 
	C66.485649,519.114624 68.517014,544.298828 72.199005,569.366455 
	C77.313210,604.184753 85.844139,638.108398 98.486519,670.946960 
	C111.779510,705.475525 128.681107,738.086914 151.847717,767.115967 
	C160.742020,778.261047 172.432922,785.965454 185.804214,790.965881 
	C188.601990,792.012146 191.864532,792.953003 194.347229,790.693848 
	C196.704544,788.548950 195.830460,785.401794 195.138077,782.676270 
	C191.315796,767.629822 180.859894,759.193970 166.767624,754.433044 
	C164.704865,753.736084 162.049194,753.821289 161.508224,750.324280 
	C168.179153,747.558594 174.994629,748.262573 181.629089,749.182251 
	C193.350159,750.807129 203.173172,756.629700 212.233765,764.014221 
	C215.587631,766.747681 218.527176,770.158630 222.413712,772.064148 
	C223.999084,770.301575 223.103882,769.075745 222.643097,767.885315 
	C217.124893,753.629700 208.566116,741.538513 197.024536,731.488586 
	C186.856476,722.634705 175.303604,716.138916 163.032349,710.764526 
	C160.717346,709.750671 158.259842,708.459351 158.858505,705.329468 
	C159.501297,701.968994 162.300934,701.604309 165.087753,701.703125 
	C171.248123,701.921570 177.371506,702.729797 183.289856,704.364197 
	C219.790253,714.443848 245.076385,737.156250 259.245514,772.259521 
	C260.465149,775.281067 261.647827,778.317505 262.850525,781.354370 
	C265.963379,780.395935 266.763367,778.123108 267.651642,776.013672 
	C277.344513,752.994812 273.342072,732.006409 257.641693,713.155762 
	C245.197739,698.214844 228.273514,690.028992 210.500412,683.258728 
	C189.973206,675.439392 169.363495,667.872681 150.968414,655.354980 
	C117.325058,632.461060 97.232353,601.120605 92.988098,560.665710 
	C89.985344,532.044373 95.138275,504.370850 107.296730,478.060760 
	C116.633362,457.856873 129.389893,440.569336 147.490997,427.339905 
	C154.644089,422.111969 162.537216,418.132935 169.859009,413.243439 
	C178.408447,407.534119 187.448730,403.017303 197.429443,400.698853 
	C217.616745,396.009460 238.413284,397.204620 258.849213,394.759705 
	C265.425446,393.972900 272.173431,394.749207 278.814697,394.346252 
	C286.992371,393.850098 294.927826,395.098602 300.269470,401.348206 
	C306.140076,408.216766 313.620636,410.162628 321.691833,411.640015 
	C332.461853,413.611389 343.381958,414.896149 353.769714,418.626038 
	C370.542603,424.648682 376.095795,436.114868 372.341400,454.746002 
	C371.257965,460.122681 368.242737,464.196747 363.471313,466.827667 
	C361.199768,468.080170 359.622528,469.685516 358.309631,471.960602 
	C355.049774,477.609497 349.712189,479.654602 343.389038,480.188660 
	C343.733643,471.434967 343.481018,471.134369 335.242462,473.156372 
	C322.552277,476.271027 309.889374,475.943817 297.183014,473.381104 
	C289.952820,471.922852 282.865997,472.184998 275.049103,475.197235 
	C279.683960,477.463226 282.800323,479.716217 287.745056,477.926331 
	C292.623627,476.160400 298.593597,475.321655 303.228271,478.524780 
	C316.896973,487.971405 331.828766,492.332855 348.382935,491.703888 
	C352.984772,491.529053 353.533264,492.884674 351.879425,497.221222 
	C350.845306,499.932831 347.923035,502.073639 348.929443,505.395721 
	C349.701294,507.943573 348.538391,509.688873 346.922668,511.144684 
	C343.089630,514.598328 339.174255,517.992310 334.443146,520.216919 
	C323.231476,525.488708 312.114288,523.691223 300.959015,519.866089 
	C287.724335,515.327942 274.248352,512.063477 260.181610,511.059113 
	C246.958618,510.114960 233.578766,511.074890 220.546906,507.354462 
	C205.055420,502.931854 194.131790,494.366943 190.939697,477.770020 
	C190.545441,475.720154 191.330322,473.267975 188.935989,470.606659 
	C187.614105,479.122833 187.816772,486.201691 191.905441,493.131531 
	C195.832947,499.788269 201.955276,503.809448 208.696701,507.852173 
	C207.316193,508.937012 206.755966,509.600525 206.042496,509.905365 
	C186.880569,518.092285 177.169434,552.325439 187.384247,571.550232 
	C195.272385,586.395996 207.803131,595.532349 223.372574,600.607605 
	C240.276794,606.117981 257.936981,608.954834 274.790558,614.745544 
	C308.135132,626.202576 338.218842,642.623901 360.437164,670.951721 
	C375.129639,689.684265 385.894470,710.265137 389.679810,734.129333 
	C390.055725,736.499207 389.274750,739.656494 392.176422,742.167419 
	C393.451935,733.918884 391.695190,726.632507 390.045013,719.428772 
	C384.281647,694.268982 370.565369,673.605042 352.635315,655.633362 
	C330.100830,633.046570 301.950012,619.964355 272.407867,609.361023 
	C261.029572,605.277039 248.944458,603.118774 238.595413,596.204468 
	C218.484207,582.767944 202.076614,565.772400 188.768402,545.667297 
	C187.753174,544.133545 187.549194,542.622375 188.099777,540.937134 
	C190.794327,532.689209 194.798004,525.109070 201.950455,520.028687 
	C209.506393,514.661682 217.570786,511.087463 227.567444,513.942383 
	C233.866348,515.741211 240.723724,516.644836 247.345932,515.206299 
	C254.600098,513.630554 260.231506,515.622070 265.257782,520.980469 
	C274.365417,530.689819 285.490509,537.730042 297.157166,543.935425 
	C317.682373,554.852539 339.983093,561.356384 361.552551,569.667786 
	C398.803619,584.021667 432.452209,603.379944 457.228210,635.851379 
	C473.064331,656.606201 484.217865,679.297913 488.376404,705.210938 
	C489.281799,710.852661 490.106445,716.507385 491.084290,722.916565 
	C494.535065,719.244995 493.824188,715.449097 493.451294,712.077332 
	C491.705505,696.290405 488.151794,680.946960 480.867615,666.685913 
	C479.523865,664.055115 479.774200,661.774170 480.802399,659.101196 
	C483.919159,650.998474 485.713165,642.505127 486.579834,633.911804 
	C489.119995,608.724792 481.230408,586.290771 467.680176,565.522278 
	C454.854095,545.863770 440.276184,527.419678 428.391022,507.075317 
	C411.232544,477.704468 405.598999,446.311768 409.831360,412.928986 
	C412.284149,393.582825 418.909119,375.573059 428.127258,358.393707 
	C453.067841,311.913177 504.997894,288.240173 556.192505,300.581665 
	C591.281372,309.040497 615.533264,331.491730 633.457886,361.756561 
	C635.164673,364.638397 636.116150,367.949188 636.261902,371.261932 
	C636.625549,379.523041 640.455078,386.159393 645.492737,392.296478 
	C647.606506,394.871552 649.862366,397.329803 652.044800,399.848816 
	C662.150085,411.512756 662.986267,424.358521 656.693848,437.975189 
	C654.087952,443.614197 649.619324,446.453156 643.185364,446.421295 
	C633.411133,446.372925 624.657043,442.814484 615.963135,439.013153 
	C613.508789,437.940033 611.305664,437.381104 609.129456,438.387177 
	C609.515686,437.034271 609.679932,435.660767 608.201477,434.888123 
	C602.061584,431.679291 596.774475,426.828247 589.366333,424.743713 
M317.495789,838.996643 
	C326.634644,843.415527 336.351166,845.306763 346.430634,845.651855 
	C364.253418,846.262146 380.568329,841.231201 395.966980,832.600342 
	C401.994354,829.222107 407.825409,825.525391 413.837463,821.055481 
	C416.665253,828.693359 421.228394,833.731079 427.982056,836.689514 
	C433.700745,839.194336 439.722504,840.337341 445.897064,840.630066 
	C464.961456,841.534119 482.376343,835.972107 498.658356,826.554016 
	C501.973419,824.636414 504.014648,824.840637 506.907837,827.257996 
	C518.440674,836.894409 531.869934,841.595886 546.913086,841.661804 
	C565.606812,841.743652 583.073853,836.657837 599.709961,828.619385 
	C612.000366,822.680786 623.994812,816.131165 636.155762,809.921753 
	C637.678650,809.144043 639.204285,807.702698 641.238220,808.868469 
	C641.587219,810.683411 641.971069,812.459717 642.266418,814.250549 
	C644.546265,828.076599 652.499695,836.085266 666.231140,838.736877 
	C676.287781,840.678894 686.072327,839.463196 695.812683,836.885193 
	C708.336426,833.570496 720.643738,829.443420 733.436707,827.129822 
	C738.144104,826.278564 741.857178,826.554504 745.402466,830.640503 
	C750.637268,836.673584 757.574829,840.272461 765.588135,841.733276 
	C782.426758,844.802795 797.509949,840.172485 811.739746,831.557983 
	C812.649292,831.007324 813.312073,830.294617 812.653381,829.165771 
	C811.865173,828.410339 811.082642,828.910706 810.279114,829.020996 
	C795.511292,831.048462 780.726868,831.937927 766.395996,826.805908 
	C751.832825,821.590637 748.121338,811.800720 755.005249,798.116760 
	C755.950134,796.238281 757.838867,794.346008 755.712585,792.288269 
	C753.762329,790.400818 751.560303,791.815979 749.649658,792.614441 
	C742.087402,795.775024 735.249634,800.258728 728.318970,804.567200 
	C715.733643,812.390869 703.245239,820.366089 688.463684,823.676819 
	C672.690491,827.209839 659.334961,818.906494 655.672791,803.177673 
	C653.145874,792.324707 655.214294,782.083557 659.345337,772.034424 
	C660.057983,770.300903 661.581787,768.636047 660.463135,766.391663 
	C656.689270,765.543274 654.105408,767.941711 651.408813,769.718079 
	C645.270325,773.761841 639.974609,778.863220 634.412903,783.630615 
	C617.946045,797.745239 601.009521,811.221558 581.315735,820.683411 
	C569.587341,826.318298 557.443848,829.491211 544.138489,827.445801 
	C526.475830,824.730591 518.428772,814.173645 521.407776,796.559631 
	C521.631470,795.237183 522.057800,793.816406 520.708801,792.903503 
	C519.013855,791.756348 517.961792,793.232117 516.823547,794.121826 
	C512.357544,797.612732 508.235107,801.455811 504.234131,805.491272 
	C489.733490,820.116943 472.883270,829.421509 451.474731,828.382629 
	C436.908905,827.675842 426.156921,817.069763 425.626129,802.493042 
	C425.564148,800.791138 426.376831,798.757690 424.324768,797.512817 
	C422.513245,797.437012 421.123383,798.404175 419.806641,799.393860 
	C408.192810,808.123718 395.515686,815.181091 383.100189,822.634827 
	C371.271545,829.736389 358.500122,833.396973 344.526886,832.378906 
	C327.909210,831.168152 315.070923,817.457764 321.039886,800.397522 
	C321.787354,798.261108 322.489502,796.000488 321.510040,793.491394 
	C317.256348,793.151794 314.281494,795.768982 311.188202,797.838806 
	C300.677185,804.872009 290.682922,812.656494 279.572388,818.817810 
	C260.953522,829.142700 241.360580,833.815186 220.037659,830.536194 
	C216.724274,830.026733 213.349915,827.705994 209.750488,829.387268 
	C209.863388,831.169556 211.008774,831.670471 211.987717,832.244385 
	C228.469772,841.906372 246.028534,845.034363 264.816132,841.090088 
	C276.379883,838.662354 286.590240,832.904846 297.188538,828.125732 
	C300.216064,826.760498 302.334015,826.611023 304.571991,829.333984 
	C307.899353,833.382568 312.306244,836.130981 317.495789,838.996643 
M517.421814,889.826233 
	C532.566650,893.092102 547.281982,892.371155 560.825806,884.146362 
	C572.465454,877.077881 584.328613,875.773682 597.071716,880.722473 
	C602.950439,883.005432 609.160828,884.384521 615.522705,884.643250 
	C631.164246,885.279419 644.819031,879.634338 657.555725,871.178406 
	C658.328552,870.665344 659.433411,870.219849 658.920532,868.808167 
	C656.882629,867.511230 655.137573,868.946045 653.339233,869.543396 
	C642.404785,873.174988 631.429993,876.169250 619.667480,874.448792 
	C613.640808,873.567444 608.111267,871.493958 602.680603,868.936829 
	C588.690674,862.349304 575.085510,862.676086 561.820007,871.034729 
	C558.167297,873.336304 554.315857,875.358154 550.426575,877.242188 
	C535.437195,884.503235 519.472717,884.010620 503.473022,882.808716 
	C500.873840,882.613464 498.375610,881.897400 495.157532,884.308228 
	C502.779114,886.680969 509.499237,888.796997 517.421814,889.826233 
M426.482361,890.399597 
	C406.281067,890.988403 386.887238,888.695740 370.630219,874.962341 
	C367.955322,872.702698 364.673706,872.991089 361.540588,873.572632 
	C355.827240,874.633057 350.139709,875.843750 344.464539,877.096619 
	C325.345490,881.317383 306.303223,882.617249 287.424744,875.852966 
	C286.536743,875.534790 285.481720,875.019653 284.840881,876.415283 
	C285.292084,878.501587 287.187714,879.040710 288.738647,879.884338 
	C309.668457,891.268005 331.392120,894.102417 354.106476,885.828003 
	C357.362915,884.641724 360.351898,884.027710 363.482147,886.476562 
	C377.923981,897.774841 394.358368,901.469116 412.301788,898.567932 
	C418.790466,897.518799 425.264557,896.095459 430.773560,892.114197 
	C429.917511,890.196533 428.490814,890.461304 426.482361,890.399597 
M488.917358,919.489441 
	C477.444885,917.152832 467.007843,920.395020 456.615753,924.943909 
	C443.401154,930.728271 429.440033,932.243958 415.138885,930.609558 
	C412.727783,930.333984 410.467865,930.341736 407.610596,932.064758 
	C427.630341,938.142395 446.829132,939.985046 466.340363,934.254395 
	C473.950623,932.019287 481.641937,931.663025 489.444580,933.566406 
	C500.243042,936.200500 511.032959,939.324951 522.299438,938.563843 
	C529.255005,938.093872 536.341736,937.627441 542.690308,933.867065 
	C529.097595,933.966187 516.249756,931.222961 504.074738,925.391968 
	C499.422485,923.163879 494.737274,921.011719 488.917358,919.489441 
M731.088379,891.398560 
	C721.495789,894.328369 711.874817,896.606079 701.707153,894.489990 
	C688.677246,891.778015 676.362976,894.403076 664.342834,899.649170 
	C654.445190,903.969055 644.341248,907.779907 633.870911,910.584961 
	C631.307068,911.271912 628.316040,911.104980 626.115967,913.187866 
	C627.641235,915.070557 629.581299,914.577759 631.347229,914.634644 
	C645.371948,915.085510 658.648926,911.570251 671.734253,907.010193 
	C677.136841,905.127441 682.644470,904.322388 688.405762,905.125427 
	C700.902466,906.867371 712.963440,905.378967 724.248230,899.460327 
	C727.329102,897.844360 730.196350,895.811829 733.109558,893.891418 
	C733.916077,893.359802 734.820923,892.549866 734.039124,891.438721 
	C733.472656,890.633911 732.542236,891.004517 731.088379,891.398560 
M474.698608,371.333374 
	C472.539154,364.599579 473.346069,357.958405 475.244751,351.193298 
	C457.073334,368.702393 448.046906,390.649048 445.591705,415.078766 
	C442.282257,448.008728 451.775055,477.595520 472.224548,503.664001 
	C457.717834,481.555328 449.648926,457.522186 448.030609,430.948273 
	C446.645111,408.198181 460.350037,362.675903 471.185303,358.957306 
	C472.505798,379.046997 474.893158,384.379639 483.812714,384.892395 
	C480.429932,380.417877 476.279724,377.123230 474.698608,371.333374 
M669.944824,202.202194 
	C670.429016,200.263550 668.939209,199.557510 667.721313,198.741043 
	C660.402588,193.834549 658.070068,194.038986 650.629761,199.595230 
	C648.473389,201.205551 648.114380,202.580933 649.353577,205.017075 
	C652.460022,211.123764 652.716614,217.117828 647.408875,222.382523 
	C649.113892,223.906860 651.052429,223.849335 652.768555,223.442612 
	C659.317993,221.890381 663.318542,217.433289 665.749207,211.384338 
	C666.924194,208.460220 667.659851,205.341202 669.944824,202.202194 
M284.134308,423.767792 
	C275.039734,421.073456 266.182648,421.401581 257.264252,425.915375 
	C260.110168,426.347382 262.613098,426.727295 265.000549,427.089691 
	C266.080536,437.796661 270.583740,443.230469 278.406006,443.611725 
	C283.852325,443.877197 284.882263,442.329590 282.545502,437.394775 
	C280.537903,433.155060 279.409943,429.201660 285.069031,426.666046 
	C286.800171,425.890381 285.797791,424.835114 284.134308,423.767792 
M775.173401,406.911255 
	C780.427917,404.433990 784.905151,401.119446 787.005981,395.432098 
	C787.882263,393.059723 788.470398,390.546783 786.169861,388.547913 
	C782.433411,385.301483 773.266541,385.202148 768.729126,388.512451 
	C774.272461,394.916107 772.445435,401.080292 766.944031,406.651123 
	C769.993774,408.510132 772.244751,407.607605 775.173401,406.911255 
M573.402893,377.033844 
	C573.876343,379.687469 574.776062,382.171570 576.496826,384.279205 
	C577.641602,385.681396 578.778748,387.505219 580.835449,387.152435 
	C582.896851,386.798798 583.442566,384.821747 583.842285,382.991547 
	C584.851929,378.368774 586.458496,374.098145 590.940247,371.567261 
	C588.473389,365.920319 584.334045,362.792389 579.166138,360.806854 
	C576.637207,366.083618 572.507263,370.235352 573.402893,377.033844 
M151.013977,524.136719 
	C150.353241,522.001160 149.692505,519.865601 148.906876,517.326294 
	C145.664871,520.178284 144.164932,523.290588 143.438934,527.950806 
	C146.548859,525.242676 147.750961,527.225098 149.226089,528.996826 
	C150.602951,530.650574 152.080017,532.363831 153.860352,533.512634 
	C159.902283,537.411316 166.244232,540.236816 173.712173,537.000916 
	C165.117249,534.909363 156.319916,533.360596 151.013977,524.136719 
M465.717804,723.273560 
	C467.225677,721.711731 469.294647,720.599060 469.892120,718.157715 
	C459.800262,726.059021 448.310944,728.240906 435.964691,727.375122 
	C434.324158,727.260193 432.361115,726.840942 431.144501,728.786011 
	C439.301605,734.276245 453.998871,732.008423 465.717804,723.273560 
M359.837036,722.431580 
	C351.728912,730.089844 341.224762,731.230652 330.765289,732.801758 
	C338.058350,736.393860 344.903046,734.394714 351.556458,731.780579 
	C359.373138,728.709473 364.449890,723.365356 365.042969,717.963135 
	C363.352356,719.436768 361.874237,720.725159 359.837036,722.431580 
M871.868164,417.938263 
	C875.018066,423.291595 875.586060,429.474457 877.784729,435.362488 
	C878.592529,432.131775 879.400330,428.901062 880.214478,425.644836 
	C883.465759,426.489441 884.082947,430.126465 887.278687,430.515778 
	C881.548950,421.121613 872.315857,412.518921 867.733582,412.524506 
	C869.056763,414.244293 870.251465,415.797119 871.868164,417.938263 
M118.792374,554.213867 
	C123.957298,556.545837 129.381378,555.422180 134.989502,554.688660 
	C135.068832,563.572449 135.154556,571.774902 138.135025,579.573669 
	C136.487457,571.732727 136.921616,563.824219 137.070343,555.928711 
	C137.134186,552.539978 135.360443,550.782471 132.098312,551.516113 
	C127.924362,552.454773 123.898216,551.880432 119.799202,551.343323 
	C118.654243,551.193359 117.149925,550.429321 116.286255,552.428833 
	C116.914047,552.906494 117.551079,553.391174 118.792374,554.213867 
M644.146729,668.336548 
	C645.931580,670.228333 646.980835,673.170715 651.975037,673.059509 
	C644.138245,663.951233 640.247681,654.195129 638.520142,643.492798 
	C636.176697,652.557251 638.444397,660.501343 644.146729,668.336548 
M483.278503,484.889954 
	C488.357483,482.509857 492.747131,479.373077 496.012604,474.063293 
	C487.153595,478.042999 479.005219,481.703491 470.438019,485.552094 
	C474.793762,487.630432 478.687195,486.671692 483.278503,484.889954 
M464.812592,422.173645 
	C463.062531,421.616333 461.678162,419.671936 459.272797,420.740906 
	C460.220490,425.680786 464.036865,427.563538 468.049103,428.326630 
	C472.497467,429.172760 477.346375,429.976959 482.131012,425.587372 
	C476.124634,423.505981 470.362732,425.102722 464.812592,422.173645 
M571.433655,587.922546 
	C577.299622,582.094604 577.586182,581.588562 577.146057,576.558899 
	C571.224609,592.430542 557.672424,594.040405 544.446167,596.265625 
	C554.908569,598.940674 563.669067,596.148987 571.433655,587.922546 
M321.784088,724.889587 
	C323.628204,729.593506 325.472321,734.297424 327.316467,739.001404 
	C327.878235,738.750671 328.440033,738.499939 329.001831,738.249207 
	C327.431824,728.574646 323.528015,719.879883 318.017700,711.859558 
	C317.611664,712.019592 317.205627,712.179626 316.799622,712.339661 
	C318.344147,716.294250 319.888641,720.248901 321.784088,724.889587 
M154.195099,586.657410 
	C160.717087,586.851379 167.220306,586.979431 172.051544,580.979492 
	C164.969315,581.979187 157.887100,582.978882 150.820236,583.976379 
	C151.063156,586.296631 152.220886,586.475159 154.195099,586.657410 
M210.716187,435.326508 
	C204.074738,440.279053 196.412170,443.263580 188.772659,446.292572 
	C199.018646,447.491333 210.628036,440.842163 216.525360,430.623962 
	C214.622040,432.207245 212.969910,433.581604 210.716187,435.326508 
M811.270752,592.179871 
	C812.997559,593.617615 814.724365,595.055298 816.451172,596.493042 
	C816.774963,596.229553 817.098816,595.966064 817.422607,595.702576 
	C812.019409,589.671021 808.892334,582.374512 805.259399,575.273315 
	C804.269043,581.751099 806.357117,587.112122 811.270752,592.179871 
M432.131226,666.687378 
	C437.706360,662.397278 440.702179,658.667542 441.698700,653.966858 
	C434.298737,664.208008 423.962555,668.593018 413.896606,673.473389 
	C420.482239,673.236267 426.043549,670.274719 432.131226,666.687378 
M751.708618,608.316162 
	C754.767151,608.263794 753.193176,606.386780 752.768921,605.272034 
	C751.178101,601.092407 749.674500,596.919495 749.401978,592.387512 
	C749.337524,591.316406 749.089111,590.002075 746.844727,590.026855 
	C745.593933,596.710205 746.614868,602.797302 751.708618,608.316162 
M210.312607,613.267395 
	C205.386063,619.479431 198.371094,622.699219 190.128235,626.140930 
	C200.038635,627.247437 209.184052,620.587585 212.228989,610.777222 
	C211.452133,611.825684 211.077301,612.331543 210.312607,613.267395 
M157.203690,509.611023 
	C161.895676,504.501740 167.713852,500.782776 173.132675,496.564972 
	C164.741150,500.181061 157.228806,504.908813 152.750610,513.487671 
	C154.058945,512.342346 155.367279,511.197021 157.203690,509.611023 
M492.811401,728.446045 
	C491.043884,725.823914 490.466095,727.430908 490.424591,729.251831 
	C490.307739,734.377502 490.383789,739.507507 490.383789,744.635803 
	C490.857574,744.657166 491.331360,744.678528 491.805176,744.699890 
	C493.042786,739.607971 494.428711,734.534180 492.811401,728.446045 
M320.860443,587.802429 
	C319.716919,589.460327 319.754120,591.451172 322.068207,589.996277 
	C327.102966,586.830933 330.425659,581.988403 332.379822,576.331116 
	C327.783783,579.186340 325.132690,583.852539 320.860443,587.802429 
M813.436035,284.415833 
	C811.080811,286.453644 807.223450,286.401398 805.552124,289.766785 
	C811.205261,291.142883 815.619141,288.391296 816.274719,283.061981 
	C815.412170,283.460419 814.708069,283.785675 813.436035,284.415833 
M143.004211,477.625183 
	C141.416611,476.589142 140.585281,477.859772 140.604675,478.911774 
	C140.687119,483.384583 141.009705,487.865479 144.826340,491.345154 
	C144.331284,486.960815 143.836227,482.576447 143.004211,477.625183 
M590.327820,251.483154 
	C590.912598,251.197983 591.621460,251.037369 592.057739,250.603043 
	C593.130493,249.535049 595.209839,248.568710 593.570618,246.680450 
	C592.133301,245.024689 590.545471,245.988968 589.371887,247.307114 
	C588.081360,248.756561 586.193848,250.407761 590.327820,251.483154 
M759.567444,364.200195 
	C757.600647,364.912628 755.103149,364.433380 752.937195,367.250275 
	C757.405273,366.702545 761.027283,367.167877 764.663086,365.715118 
	C763.325928,363.942871 761.740662,364.306519 759.567444,364.200195 
M563.739624,662.251953 
	C566.862854,662.251953 569.986084,662.251953 573.109314,662.251953 
	C573.068665,661.761169 573.028076,661.270325 572.987488,660.779541 
	C569.763855,660.785278 566.552979,660.978394 563.321594,660.558716 
	C561.245544,660.289001 560.703491,661.340027 563.739624,662.251953 
M416.610016,692.044678 
	C416.304993,691.679932 416.014374,691.149414 415.558655,691.881531 
	C415.490112,691.991638 415.542023,692.216919 415.602966,692.361633 
	C416.931244,695.514709 418.268707,698.664001 419.604401,701.813965 
	C419.833679,701.727600 420.062958,701.641174 420.292236,701.554749 
	C419.144226,698.551331 417.996246,695.547852 416.610016,692.044678 
M558.899109,725.490784 
	C555.405273,724.233032 551.828003,725.507141 547.212097,724.648315 
	C551.605957,727.339661 555.098511,726.964172 558.899109,725.490784 
z"/>
<path fill="#000000" opacity="1.000000" stroke="none" 
	d="
M452.864105,550.179077 
	C464.909882,566.671814 475.969604,583.308838 480.784668,603.170410 
	C484.729675,619.442871 484.758209,635.680054 479.416656,651.717590 
	C478.909149,653.241394 478.720581,654.981567 477.259369,656.133850 
	C475.159882,655.903442 474.906586,653.927734 474.136414,652.638245 
	C458.821136,626.994934 438.820770,605.966797 413.112366,590.565125 
	C410.764313,589.158386 409.206512,587.751587 409.687561,584.692871 
	C412.424774,567.289185 407.154327,551.379456 399.681274,536.176758 
	C393.296173,523.187500 385.971100,510.657928 378.987732,497.965790 
	C374.965942,490.656311 371.229889,483.237823 368.732605,475.240509 
	C367.932770,472.678986 368.067749,470.748108 370.101013,468.520996 
	C382.909454,454.491302 381.211548,431.919220 366.409851,420.127014 
	C363.251343,417.610779 363.445343,414.945099 364.144257,411.737335 
	C369.890991,385.362518 381.654938,361.998444 398.726135,341.111694 
	C412.457550,324.311218 427.516113,308.763763 442.544189,293.171295 
	C462.785980,272.169373 478.826202,248.495651 488.682953,220.871948 
	C491.758331,212.253128 492.373718,203.371078 491.681030,194.309509 
	C491.330902,189.728867 488.833191,186.294495 485.880188,182.909760 
	C487.178955,181.348785 488.300507,180.000839 489.422028,178.652878 
	C468.434998,194.846558 442.075287,203.469971 424.993958,224.952911 
	C421.579559,229.247147 417.950623,233.411652 414.075195,237.290939 
	C401.884583,249.493774 385.611664,250.280273 372.236145,239.436157 
	C370.706757,238.196228 369.283936,236.673447 368.243347,235.011536 
	C365.544006,230.700378 366.321655,227.445267 371.102234,225.932892 
	C393.091553,218.976456 407.611908,202.877075 421.397797,185.722626 
	C426.090027,179.883804 431.029083,174.232590 436.459991,169.036346 
	C437.595673,167.949783 439.341248,167.215714 439.312683,164.916016 
	C436.500977,163.414795 433.606689,164.256485 430.791290,164.957062 
	C421.314728,167.315262 413.168793,172.242828 406.558380,179.231522 
	C399.026276,187.194641 390.275513,192.829483 379.892487,196.131668 
	C377.042236,197.038147 374.225037,198.151184 371.818665,200.009689 
	C368.423828,202.631607 368.553345,204.552460 372.128632,206.874969 
	C373.869751,208.005997 376.273773,208.361877 377.311920,211.923248 
	C371.524689,212.516479 365.962494,214.349640 360.383270,212.895233 
	C355.159180,211.533386 350.736938,212.090225 346.203156,214.878143 
	C343.834656,216.334610 341.035828,217.223648 338.320129,217.957138 
	C331.510620,219.796417 325.222382,216.712540 320.739716,209.604965 
	C311.642670,195.181030 313.117706,181.103149 324.886322,168.621597 
	C331.073273,162.059830 337.955566,156.257080 344.581482,150.175293 
	C348.401611,146.668900 350.724731,142.503525 351.813599,137.403793 
	C355.303528,121.058357 366.770813,111.075211 380.244995,103.045181 
	C401.716858,90.248917 424.963379,82.856979 449.917480,80.547867 
	C467.979950,78.876472 485.992828,78.566833 503.212006,84.728783 
	C540.305908,98.003021 563.989319,123.254341 570.355713,163.034607 
	C575.965515,198.086761 567.077332,230.627045 552.731323,262.150726 
	C548.311157,271.863617 543.183655,281.207214 537.384949,290.173981 
	C536.108887,292.147095 534.941406,293.970306 531.995178,293.824677 
	C505.466370,292.513580 481.875793,300.903015 460.536682,316.122314 
	C456.475403,319.018890 452.882050,321.226990 447.986328,318.510834 
	C447.297638,318.128754 446.352509,318.206024 445.676239,319.199036 
	C445.804047,322.054779 449.626526,321.266632 450.437775,324.070587 
	C442.633148,331.874664 435.151215,340.309204 429.185822,349.980286 
	C416.305359,370.862061 408.925781,393.483765 406.227844,417.900970 
	C401.917633,456.909760 413.328278,491.497009 434.566467,523.521851 
	C440.456177,532.402893 446.615662,541.104980 452.864105,550.179077 
M399.709503,121.173302 
	C396.053680,125.453743 393.170776,130.434082 388.041718,133.359650 
	C385.591339,134.757339 385.832977,136.854630 387.513367,138.841675 
	C389.593201,141.301086 391.219574,143.909805 391.338379,147.291733 
	C391.488159,151.555191 393.726288,151.066422 396.212921,149.153931 
	C398.927917,147.065796 400.741577,144.152420 401.822968,141.018173 
	C404.488739,133.291702 410.195435,129.797379 417.833282,128.643066 
	C418.766724,128.501999 419.935333,128.538300 419.838684,126.809105 
	C414.755463,125.097099 410.387268,128.764297 405.365387,129.031281 
	C403.142792,124.501076 408.148834,120.190224 405.920288,115.695526 
	C402.913849,116.426262 401.751678,118.774048 399.709503,121.173302 
M509.471375,228.990707 
	C514.587891,230.110367 518.962830,228.865936 522.610107,224.897202 
	C516.082214,224.228577 509.632355,224.753006 502.741730,223.749878 
	C503.656342,227.413132 506.391479,227.857742 509.471375,228.990707 
M510.948547,180.784439 
	C510.414948,181.436981 509.773132,182.397186 511.065491,182.585953 
	C515.227539,183.193893 523.344055,175.844299 523.973145,170.415512 
	C519.526489,173.962891 515.478516,177.192215 510.948547,180.784439 
M480.606812,273.207489 
	C485.555115,276.818756 491.171112,277.791687 497.188507,277.373566 
	C492.315277,274.520905 486.456635,274.064728 481.862762,270.415375 
	C480.023987,268.954712 478.768829,270.454315 480.606812,273.207489 
M540.251038,206.375351 
	C540.922058,201.400101 540.975830,196.418854 540.712402,191.372208 
	C538.348389,197.790726 538.300659,204.356430 538.263000,212.301865 
	C539.132568,209.738586 539.577026,208.428284 540.251038,206.375351 
M540.871216,185.628632 
	C540.663269,181.748322 541.316956,177.716080 539.012390,172.735184 
	C538.034241,182.446716 538.034241,182.446716 540.871216,185.628632 
z"/>
<path fill="#000000" opacity="1.000000" stroke="none" 
	d="
M267.049988,314.588867 
	C272.790863,316.214935 278.172424,317.943695 283.959656,316.690582 
	C286.201080,316.205261 288.059540,316.832001 289.708466,318.712128 
	C300.722260,331.269989 315.533081,336.416748 331.268127,339.597198 
	C334.670624,340.284943 338.183685,340.423065 341.644501,340.825958 
	C344.001282,341.100250 346.341888,341.414276 347.284637,344.121033 
	C348.134827,346.561981 347.763092,348.933868 345.903442,350.593231 
	C333.652435,361.524933 318.240601,371.027924 301.778320,362.025909 
	C284.202484,352.415039 265.412842,347.763702 245.793854,345.418213 
	C238.157730,344.505310 230.869156,342.001740 223.792587,339.169617 
	C219.849030,337.591370 217.256851,338.687469 214.333069,341.003082 
	C200.058380,352.308594 193.215179,372.917328 198.306717,390.859802 
	C199.582703,395.356384 198.756638,396.924896 194.069000,397.718262 
	C187.665390,398.801941 181.376740,400.996582 176.168564,404.982635 
	C162.168839,415.697205 145.782288,423.034576 133.063217,435.543793 
	C132.502014,436.095734 131.666946,436.369202 130.468994,437.051910 
	C126.294716,427.766266 123.283997,418.353271 121.200401,408.688477 
	C113.737114,374.069916 115.855522,340.105194 130.728638,307.774384 
	C146.819275,272.796844 174.800690,251.832611 211.924789,242.714294 
	C221.905563,240.262848 231.406189,235.764938 241.794022,235.125458 
	C256.412476,234.225525 270.944641,233.387451 284.282684,241.947723 
	C289.569855,245.340988 296.561340,244.188354 302.711884,245.547287 
	C320.304840,249.434402 337.021851,255.779633 351.596039,266.207275 
	C362.157776,273.764069 370.079285,284.425171 370.108521,298.228729 
	C370.126495,306.726013 366.076965,314.619049 361.429382,321.770020 
	C359.219452,325.170319 355.645691,327.143555 351.528351,327.570831 
	C350.399719,326.270020 350.674591,324.880432 350.669159,323.581696 
	C350.660400,321.494934 350.485565,319.481689 348.303802,318.500153 
	C345.945496,317.439178 344.583771,319.105927 343.240387,320.617401 
	C338.849487,325.557617 333.190247,328.112091 326.871094,329.565979 
	C325.105957,329.972107 323.532196,330.209595 322.369263,328.634735 
	C321.088104,326.899750 322.292877,325.394165 323.282745,324.128174 
	C325.515808,321.272339 327.925446,318.554565 330.607605,315.372040 
	C323.828644,310.624542 316.555634,309.915558 309.031311,310.516144 
	C295.980591,311.557861 283.045959,314.558136 269.820557,312.648193 
	C268.313110,312.430511 266.697083,312.964905 264.262695,313.253540 
	C265.626495,313.956360 266.177521,314.240326 267.049988,314.588867 
M144.625793,370.751526 
	C143.143890,377.777100 144.304031,384.809967 144.987564,391.849945 
	C144.987564,384.566772 144.987564,377.283600 145.389374,369.382507 
	C146.959442,366.731293 146.654129,363.833710 146.696030,360.505890 
	C144.172043,363.688934 144.130478,366.787689 144.625793,370.751526 
M262.373901,267.793884 
	C262.715240,275.370941 265.830292,279.601715 272.930420,281.697571 
	C276.646881,282.794647 280.559265,284.025787 284.169250,279.422424 
	C277.030243,275.893280 276.292206,270.513824 279.734802,264.116699 
	C274.936707,262.826630 270.787537,263.132294 266.675446,263.491730 
	C264.618591,263.671478 262.809021,264.593719 262.373901,267.793884 
M163.921066,362.587982 
	C168.220139,365.858734 172.601303,368.886230 178.733826,367.498535 
	C165.477676,361.983490 157.081406,353.000946 157.127975,337.912628 
	C151.015427,339.841797 155.665604,342.665192 155.720856,344.843628 
	C155.891998,351.590668 158.643234,357.325500 163.921066,362.587982 
M197.556656,327.924683 
	C188.543045,322.342072 184.358398,313.557800 181.797760,303.696777 
	C181.303986,316.051910 192.380203,330.369812 202.330841,331.085083 
	C200.861679,330.135406 199.479782,329.242126 197.556656,327.924683 
z"/>
<path fill="#000000" opacity="1.000000" stroke="none" 
	d="
M670.109863,591.207031 
	C644.916260,604.195862 623.243713,620.785889 607.241577,644.528137 
	C606.372681,638.883545 606.446472,633.478088 605.999329,628.127136 
	C604.063110,604.955872 598.079590,583.015381 586.962769,562.558777 
	C585.271423,559.446411 585.952454,557.061462 587.639221,554.256287 
	C602.089233,530.224792 619.137573,508.073730 636.587219,486.205597 
	C647.902283,472.025391 659.099548,457.761047 672.361023,445.258789 
	C675.463440,442.333954 677.799805,441.171631 681.730286,443.857483 
	C687.054382,447.495605 693.777771,447.135681 699.829163,449.123169 
	C699.720459,451.759827 697.696045,453.243744 696.202209,454.861389 
	C690.976196,460.520355 689.469482,467.435364 692.696533,473.862671 
	C699.384216,487.182709 708.384399,498.604431 723.825989,502.880005 
	C727.630554,503.933411 731.341675,503.341461 735.300049,502.802887 
	C735.690186,505.276276 733.964783,506.242432 732.831116,507.513397 
	C715.476074,526.971008 699.823486,547.594238 689.001343,571.525024 
	C688.932739,571.676819 688.818359,571.818176 688.789612,571.976135 
	C686.892578,582.392822 680.229431,588.218323 670.109863,591.207031 
M617.878662,536.762390 
	C623.079773,542.881592 631.028381,546.236877 636.730408,543.513855 
	C629.608154,541.475769 624.293396,538.111023 619.284302,534.132019 
	C617.561401,532.763367 617.289551,534.739929 617.878662,536.762390 
z"/>
</svg>